<svg xmlns="http://www.w3.org/2000/svg" viewBox="0 0 575.97 230.99" xmlns:v="https://vecta.io/nano"><path d="M167.52 162.87h.63l30.8-76.74c3-7.38 5.76-11 8.52-12.64v-.75h-18.53v.75c3.88 2.13 4.75 7.9 2.12 14.52l-18.9 47.32-25.67-62.84h-.6l-27.05 62.7-19.4-49.32c-2.25-5.88-1.63-10.26 2-12.4v-.75h-27v.75c2.88 1.5 5 4.63 7.63 11l31.8 78.36h.62l26.76-63.45zm199.54-43.94V94h26c11.9 0 16.4 1.88 20.65 7.9l.76-.26L413 87.88h-65.1l-.13.63c3.9 2.38 5 5.88 5 10.9v49.32c0 5.14-1.12 8.52-5 10.9l.13.75h68.47l2.5-14.76-.64-.25c-4.37 5.88-9.63 8.88-21.4 8.88h-29.8V124.8H387c8.5 0 12.76 1.38 15 5h.87v-15.76l-.87-.13c-2.26 3.63-6.52 5-15 5zm87.25 40.68l.12.75h25.05v-.75c-4.14-2.37-5.4-6.14-5.4-12.14v-17l22-31.42c4-5.76 7.4-9.27 10.27-10.52v-.63h-19.5v.63c3.5 2 4 6.9.25 12.26L471 124.06 453.18 97.9c-2.75-4-2.25-7.64 1-9.4v-.63h-27.4v.63c3.26 1.38 5.26 3.25 8.76 8.26l24.3 34.68v16c0 6-1.38 9.77-5.5 12.14m-120.8.75l3.5-15.25-.76-.25c-4.25 6.64-10.76 9.4-20.4 9.4h-28.26v-53.57c0-6.14 1.5-9.65 5.75-12.15v-.63h-24.9l-.13.63c3.88 2.38 5 5.88 5 10.9v49.32c0 5.14-1.13 8.52-5 10.9l.13.75zM223.23 148.1c0 5.64-1.26 9.27-5.26 11.52v.75h24.8v-.75c-4-2.25-5.26-5.88-5.26-11.52V100c0-5.5 1.25-9.13 5.26-11.5v-.63H218v.63c4 2.38 5.26 6 5.26 11.5z" fill="#231f20"/></svg>